<?xml version="1.0" encoding="utf-8"?>
<!-- Generator: Adobe Illustrator 24.0.2, SVG Export Plug-In . SVG Version: 6.00 Build 0)  -->
<svg version="1.1" id="Capa_1" xmlns="http://www.w3.org/2000/svg" xmlns:xlink="http://www.w3.org/1999/xlink" x="0px" y="0px"
	 viewBox="0 0 1080 1080" style="enable-background:new 0 0 1080 1080;" xml:space="preserve">
<style type="text/css">
	.st0{fill:#008274;}
	.st1{fill-rule:evenodd;clip-rule:evenodd;fill:#E88813;}
	.st2{opacity:0.38;fill-rule:evenodd;clip-rule:evenodd;fill:#E88813;}
</style>
<g>
	<g>
		<g>
			<path class="st0" d="M73.3,538.8c0-276.5,224.1-500.6,500.6-500.6c175.1,0,329.2,89.9,418.6,226C910.2,157.4,781,88.7,635.7,88.7
				c-248.7,0-450.2,201.5-450.2,450.2S387.1,989,635.7,989c145.3,0,274.5-68.8,356.8-175.6c-89.5,136.1-243.6,226-418.6,226
				C297.4,1039.4,73.3,815.3,73.3,538.8z"/>
		</g>
		<g>
			<path class="st0" d="M258.8,572.9c0-196.1,159-355.1,355.1-355.1c124.2,0,233.5,63.7,297,160.3c-58.4-75.7-150-124.5-253.1-124.5
				c-176.4,0-319.4,143-319.4,319.3c0,176.4,143,319.3,319.4,319.3c103,0,194.7-48.8,253.1-124.5C847.5,864.3,738.2,928,614,928
				C417.8,928,258.8,769,258.8,572.9z"/>
		</g>
	</g>
	<g>
		<path class="st1" d="M798.1,534.2c0,78.5-25.1,148.9-69.4,178.9c-38,13.7-77.5,9.4-109.2-2.8c-50.2-34.1-78.6-111.3-74.9-190.1
			h-4.2c-8,82.4,25.5,164.2,86.1,199.8c36.5,12.2,75.4,13.7,119.2,0c51.2-30.1,86.8-97.6,86.8-176.2c0-5.7-0.2-11.3-0.6-16.8
			c-0.1-1.9-0.7-5.7-0.9-8.2l-33,11.7C798.3,535.1,798.1,529.5,798.1,534.2z"/>
		<path class="st1" d="M685.6,490.1c80.3,0,145.5,13.1,145.5,29.2c0,16.1-65.1,29.2-145.5,29.2c-80.3,0-145.5-13.1-145.5-29.2
			C540.1,503.2,605.2,490.1,685.6,490.1L685.6,490.1z M681.5,491.7c-74.4,0-134.8,10.9-134.8,24.4c0,13.5,60.3,24.4,134.8,24.4
			c74.4,0,134.8-10.9,134.8-24.4C816.3,502.6,756,491.7,681.5,491.7z"/>
		<path class="st1" d="M811.7,541.4c10.3-8.6,29.1-14.8,42.2-16.3c9.2-1.1,18.7-0.5,27.4,2.8c27.2,10.5,31.2,41.2,29.2,66.7
			c-1.7,21.9-7.2,45.2-20.9,63c-10.1,13.1-23.9,22-40.2,24.9c-13.6,2.4-28.2,0.3-40.5-6c-11.2-5.7-21.1-15.2-24.3-27.7l-2.2-8.5
			l17-4.3l2.2,8.5c1.9,7.4,8.7,13.1,15.2,16.4c9,4.6,19.6,6.1,29.6,4.4c12-2.1,22-8.7,29.4-18.3c11.5-14.9,15.9-35.3,17.3-53.6
			c1.3-16.6,0.6-41.9-18.1-49c-6-2.3-12.8-2.5-19.1-1.8c-9.6,1.1-25.5,6.1-33,12.4l-6.7,5.6L805,547L811.7,541.4z"/>
		<path class="st2" d="M721.9,708.2c38.5-26.1,65.4-91.6,66.1-159.6c-44.6,10.9-141.6,15.8-203.2,1.9c-3.5,30.4,7.2,66.7,32.3,122.1
			c-32.5-36.9-50.4-67.4-51.8-127.5c-4.3-1.5-8.2-3.1-11.9-4.9c-1.8,67.7,29,136.3,72.2,165.5C653.5,716.5,688.4,720.3,721.9,708.2z
			"/>
		<path class="st1" d="M685.2,509.9c50.2,0,94.3,5.6,118.8,13.9c-24.5,8.4-68.5,13.9-118.8,13.9c-50.2,0-94.3-5.6-118.8-13.9
			C591,515.5,635,509.9,685.2,509.9z"/>
		<path class="st1" d="M740.4,415c0-0.1,0.1-0.1,0.1-0.2C740.4,414.9,740.4,414.9,740.4,415L740.4,415z"/>
		<path class="st1" d="M627.2,426.7l0,0.2C627.2,426.8,627.2,426.8,627.2,426.7z"/>
		<path class="st1" d="M686.2,776.1c-106.6-3-131-20.4-168.3-32.8c-36.1-12-44.5-30.3-11.3-43c-5.5,3.7-8.5,7.7-8.5,11.8
			c0,21.8,84,39.6,188,39.8c104-0.2,188-17.9,188-39.8c0-4.1-3-8.1-8.5-11.8c33.2,12.7,24.8,31-11.3,43
			C817.1,755.7,792.8,773.1,686.2,776.1z"/>
		<path class="st1" d="M686.2,743.9c-73.3-0.5-132-13.2-132-28.7c0-5.2,6.5-10,17.9-14.2c-3.1,2.3-4.7,4.8-4.7,7.3
			c0,14.4,52.7,26.1,118.8,26.6c66-0.6,118.8-12.3,118.8-26.6c0-2.5-1.6-5-4.7-7.3c11.4,4.2,17.9,9,17.9,14.2
			C818.2,730.7,759.5,743.4,686.2,743.9z"/>
		<path class="st1" d="M715,471.9c-27.9-6.2-45.2-14.3-21.9-31.9c11.7-8.9,52.7-28.3,49.4-39.8c-4-13.7-47.7-14.5-59.4-23.5
			c-25.3-19.2,52-52.1-1.6-80.5l-6.3-3.2l0,0c45.4,15.7,27.9,36.8,13.4,60.6c-15,24.8,4.2,22.7,31.4,29.4
			c56.9,14.1,19.3,34.7-7.9,51.7c-26.5,16.6-32.5,23.3,5.2,31.3L715,471.9z"/>
		<path class="st1" d="M657.3,474.5c-55.4-10.7-79.8-23.4-20.8-46.8c9.4-3.7,60.2-19.7,48.2-27.4c-18.7-12-78.9-7.2-49-40.8
			c20-22.4,49-40.7,10-63.8c-4-2.4-12.3-6.5-16.4-8.5c10.7,3.6,16.1,5.3,24.9,10.9c34.2,22,4.8,43.4-12.3,63.9
			c-17.3,20.7,2.3,20.6,28.1,26.5c76.5,17.2-34.8,43.1-52.7,58.1c-14.1,11.9,33.1,18,43,19.8L657.3,474.5z"/>
	</g>
</g>
</svg>
